<svg id="visual" viewBox="0 0 900 600" preserveAspectRatio="none" width="100%" height="100%" xmlns="http://www.w3.org/2000/svg" xmlns:xlink="http://www.w3.org/1999/xlink" version="1.1"><rect x="0" y="0" width="900" height="600" fill="#1e0430"></rect><path d="M428 600L433 600L433 500L480 500L480 400L437 400L437 300L484 300L484 200L455 200L455 100L489 100L489 0L900 0L900 100L900 100L900 200L900 200L900 300L900 300L900 400L900 400L900 500L900 500L900 600L900 600Z" fill="#9900ff"></path><path d="M532 600L551 600L551 500L561 500L561 400L555 400L555 300L569 300L569 200L576 200L576 100L549 100L549 0L900 0L900 100L900 100L900 200L900 200L900 300L900 300L900 400L900 400L900 500L900 500L900 600L900 600Z" fill="#8200d9"></path><path d="M659 600L657 600L657 500L674 500L674 400L639 400L639 300L656 300L656 200L642 200L642 100L669 100L669 0L900 0L900 100L900 100L900 200L900 200L900 300L900 300L900 400L900 400L900 500L900 500L900 600L900 600Z" fill="#6c00b4"></path><path d="M773 600L787 600L787 500L760 500L760 400L766 400L766 300L760 300L760 200L753 200L753 100L773 100L773 0L900 0L900 100L900 100L900 200L900 200L900 300L900 300L900 400L900 400L900 500L900 500L900 600L900 600Z" fill="#560090"></path></svg>