<svg id="visual" viewBox="0 0 900 600" preserveAspectRatio="none" width="100%" height="100%" xmlns="http://www.w3.org/2000/svg" xmlns:xlink="http://www.w3.org/1999/xlink" version="1.1"><rect x="0" y="0" width="900" height="600" fill="#140021"></rect><path d="M0 370L150 370L150 382L300 382L300 407L450 407L450 424L600 424L600 352L750 352L750 448L900 448L900 444L900 601L900 601L750 601L750 601L600 601L600 601L450 601L450 601L300 601L300 601L150 601L150 601L0 601Z" fill="#9900ff"></path><path d="M0 417L150 417L150 478L300 478L300 468L450 468L450 511L600 511L600 440L750 440L750 418L900 418L900 457L900 601L900 601L750 601L750 601L600 601L600 601L450 601L450 601L300 601L300 601L150 601L150 601L0 601Z" fill="#7700c6"></path><path d="M0 506L150 506L150 522L300 522L300 563L450 563L450 561L600 561L600 486L750 486L750 527L900 527L900 507L900 601L900 601L750 601L750 601L600 601L600 601L450 601L450 601L300 601L300 601L150 601L150 601L0 601Z" fill="#560090"></path></svg>